<?xml version="1.0" encoding="utf-8"?>
<!-- Generator: Adobe Illustrator 24.3.0, SVG Export Plug-In . SVG Version: 6.00 Build 0)  -->
<svg version="1.1" xmlns="http://www.w3.org/2000/svg" xmlns:xlink="http://www.w3.org/1999/xlink" x="0px" y="0px"
	 viewBox="0 0 425.2 425.2" style="enable-background:new 0 0 425.2 425.2;" xml:space="preserve">
<style type="text/css">
	.st0{fill:#CCCCCC;}
	.st1{fill:#636358;}
	.st2{fill:#515147;}
	.st3{fill:#EAE5DC;}
	.st4{fill:#393C3D;}
	.st5{fill:#2F3233;}
	.st6{fill:#DBB491;}
	.st7{fill:#CCA483;}
	.st8{fill:#C69E7F;}
	.st9{fill:#72726A;}
	.st10{fill:#3B3B3B;}
</style>
<g id="Capa_2">
	<rect x="0" class="st0" width="425.2" height="425.2"/>
</g>
<g id="Layer_1">
	<g>
		<g>
			<path class="st1" d="M390.3,344.5c-13.7-46.5-82.7-41.4-112.5-54.7c-29.8-13.4-25.1-58.2-28.9-66h-72.6
				c-3.8,7.8,0.9,52.7-28.9,66c-29.8,13.4-98.8,8.2-112.5,54.7c-7.6,25.7-7.2,33.5-9.3,62c0,0,94.7,18.7,184.9,18.7
				s189.2-18.7,189.2-18.7C397.6,378,397.9,370.2,390.3,344.5z"/>
			<path class="st2" d="M390.3,344.5c-13.7-46.5-82.7-41.4-112.5-54.7c-29.8-13.4-25.1-58.2-28.9-66h-38.5c0,0-0.9,62.9,28.9,76.3
				c29.8,13.4,98.8,8.2,112.5,54.7c7.2,24.4,7.2,32.7,9,58c23.7-3.5,38.8-6.3,38.8-6.3C397.6,378,397.9,370.2,390.3,344.5z"/>
			<path class="st3" d="M245.6,424.3l17.6-124.4H161.9l17.6,124.6c10.3,0.4,20.6,0.7,30.9,0.7C222.1,425.2,233.9,424.9,245.6,424.3z
				"/>
			<path class="st4" d="M250.3,311.1c12-4.7,21.9-11.6,28.6-20l0.5-0.6c-0.5-0.2-1.1-0.4-1.6-0.7c-29.8-13.4-25.1-58.2-28.9-66
				h-72.7c-3.8,7.8,0.9,52.7-28.9,66c-0.5,0.2-1,0.5-1.6,0.7l0.5,0.6c6.7,8.4,16.6,15.3,28.6,20c11.4,4.4,24.4,6.8,37.7,6.8
				C225.9,317.9,239,315.5,250.3,311.1z"/>
			<path class="st5" d="M277.8,289.8c-5.4-2.4-9.6-5.8-13-9.9l0,0c-6.2,7.8-17,14.1-30.3,17.4c1.5,1.1,3.1,2,4.8,2.7
				c5.8,2.6,13.1,4.5,21.2,6.2c7.4-4.2,13.7-9.3,18.3-15.2l0.5-0.6C278.9,290.2,278.3,290,277.8,289.8z"/>
			<path class="st6" d="M264.9,279.9c-15.4-18.4-12.8-49.7-15.9-56.1h-72.7c-3.1,6.4-0.5,37.7-15.9,56.1c9.4,11.8,29.3,20,52.3,20
				S255.4,291.8,264.9,279.9z"/>
			<path class="st7" d="M234.6,297.3c13.2-3.3,24-9.5,30.3-17.4c-15.4-18.4-12.8-49.7-15.9-56.1h-38.5
				C210.5,223.8,209.7,279.7,234.6,297.3z"/>
			<path class="st8" d="M166.5,270.1c12.1,9.8,26.2,19.5,46,22.4c19.9-2.8,34-12.7,46.1-22.6c-10-18.5-6.9-40.5-9.7-46.1h-72.7
				C173.5,229.4,176.6,251.6,166.5,270.1z"/>
			<path class="st2" d="M303.6,341.1l-18.9-6.9l17-4.7l-16.2-36.9l-50.2,132.2c5.9-0.2,11.8-0.5,17.6-0.8L303.6,341.1z"/>
			<path class="st2" d="M122.2,329.5l17,4.7l-18.9,6.9l50.8,83c5.8,0.3,11.7,0.5,17.6,0.7L138.3,293L122.2,329.5z"/>
			<path class="st9" d="M298.3,342.1l-18.3-7.7l16.6-5.9l-11.1-35.9l-20.8-16.2L225.1,425c8.6-0.2,17.2-0.5,25.8-1L298.3,342.1z"/>
			<path class="st1" d="M264.6,276.4l-7.7,29.1c10.5,2.4,22.7,4.3,34.7,7l-6.1-19.9L264.6,276.4z"/>
			<path class="st9" d="M138.3,293l-11,35.5l16.6,5.9l-18.3,7.7l47.5,82.1c8.5,0.4,17.1,0.7,25.7,0.9l-39.6-148.7L138.3,293z"/>
			
				<ellipse transform="matrix(0.177 -0.9842 0.9842 0.177 69.6786 439.6209)" class="st7" cx="297.7" cy="178.1" rx="26.4" ry="14.3"/>
			
				<ellipse transform="matrix(0.9842 -0.177 0.177 0.9842 -29.5249 25.3409)" class="st6" cx="127.3" cy="178.2" rx="14.3" ry="26.4"/>
			<path class="st6" d="M291.7,90.4h-79.2h-79.1c0,0-44.4,180.7,79.1,198.2C336.1,271.1,291.7,90.4,291.7,90.4z"/>
			<path class="st7" d="M212.5,288.6c123.5-17.5,79.2-198.2,79.2-198.2h-18.5c5.1,75.5,12.1,115.6-17,159.3
				C233.1,284.3,212.5,288.6,212.5,288.6z"/>
			<path class="st7" d="M306.7,97.7c-7.1-28.1-42.6-60.1-94.1-60.1s-87,32-94.1,60.1l9.5,78c0.1-8.5,0.3-24.8,1.2-35.3
				c1.2-14.7,8.3-42.6,32.3-42.3c9,0.1,29.9,14.7,51.1,14.7c20.4,0,40.9-14.5,51.1-14.7c24-0.4,31.2,27.6,32.3,42.3
				c0.8,10.5,1.1,26.9,1.2,35.4L306.7,97.7z"/>
			<path class="st10" d="M297.2,175.8c22.9-25.2,9.5-83.7,9.5-83.7C299.6,64,264,32,212.6,32s-87,32-94.1,60.1
				c0,0-13.5,58.5,9.5,83.7l0,0l0,0c0,0,0-26.4,1.2-41.1c1.2-14.6,8.3-42.6,32.3-42.3c9,0.1,29.9,14.7,51.1,14.7
				c20.4,0,40.9-14.5,51.1-14.7c24-0.4,31.2,27.6,32.3,42.3S297.2,175.8,297.2,175.8L297.2,175.8L297.2,175.8
				C297.2,175.8,297.2,175.8,297.2,175.8z"/>
		</g>
	</g>
</g>
</svg>
