<?xml version="1.0" encoding="utf-8"?>
<!-- Generator: Adobe Illustrator 24.3.0, SVG Export Plug-In . SVG Version: 6.00 Build 0)  -->
<svg version="1.1" xmlns="http://www.w3.org/2000/svg" xmlns:xlink="http://www.w3.org/1999/xlink" x="0px" y="0px"
	 viewBox="0 0 425.2 425.2" style="enable-background:new 0 0 425.2 425.2;" xml:space="preserve">
<style type="text/css">
	.st0{fill:#CCCCCC;}
	.st1{fill:#2F3233;}
	.st2{fill:#E8C59E;}
	.st3{fill:#DDB58E;}
	.st4{fill:#D15852;}
	.st5{fill:#C65044;}
	.st6{fill:#CCA281;}
	.st7{fill:#E0605C;}
</style>
<g id="Capa_2">
	<rect class="st0" width="425.2" height="425.2"/>
</g>
<g id="Layer_1">
	<g>
		<g>
			<path class="st1" d="M212.5,289.6c-80.2,0-105.2-12.7-105.2-12.7c31.8-40.7,3.4-75.6-1.9-109.9C97.3,113.5,112.7,35.2,211,35.2
				c63.6,0,87.1,28,95.8,40.2c20.1,28,19.9,84.3,3.8,127.2c-14.3,38.2,5.1,71.3,5.1,71.3S292.7,289.6,212.5,289.6z"/>
			<path class="st2" d="M379.2,345.1c-12.9-46.2-77.6-41.1-105.5-54.4c-27.9-13.3-23.6-57.8-27.1-65.6h-68.1
				c-3.5,7.7,0.8,52.3-27.1,65.6C123.5,304,58.8,298.9,46,345.1c-7.1,25.5-6.8,33.3-8.7,61.5c0,0,88.8,18.6,173.4,18.6
				S388,406.6,388,406.6C386,378.4,386.3,370.6,379.2,345.1z"/>
			<path class="st3" d="M237.7,300.9c27.9,13.3,92.6,8.1,105.5,54.4c6.8,24.3,6.8,32.5,8.5,57.6c22.2-3.4,36.3-6.3,36.3-6.3
				c-2-28.2-1.6-36-8.7-61.5c-12.9-46.2-77.6-41.1-105.5-54.4c-27.9-13.3-23.6-57.8-27.1-65.6h-36.1
				C210.6,225.1,209.8,287.6,237.7,300.9z"/>
			<path class="st4" d="M93.1,416c32.7,4.6,75.6,9.2,117.5,9.2c43.2,0,88.6-4.9,122.7-9.6c16.4-14.4,40.6-17.6,54.1-18.1
				c-1.4-21.2-1.8-29.9-8.1-52.4c-11.9-42.7-68-41.6-98.5-51.6c3.7,21.9,15.1,116.5-67.8,116.5c-83.2,0-71.4-95.3-67.7-116.7
				C114.9,303.5,58,302,46,345.1c-6.3,22.5-6.7,31.2-8.1,52.4C51.4,397.9,76.5,401,93.1,416z"/>
			<path class="st5" d="M379.2,345.1c-11.9-42.7-68-41.6-98.5-51.6c0.7,4.1,1.7,10.8,2.2,19c26,5.8,52.5,15,60.2,42.9
				c6,21.5,6.7,30.4,7.9,49.5c13.2-5.4,27.1-7,36.3-7.3C386,376.3,385.5,367.6,379.2,345.1z"/>
			<path class="st6" d="M169.4,271.2c11.3,9.7,24.6,19.4,43.1,22.2c18.7-2.8,31.9-12.7,43.2-22.4c-9.4-18.3-6.5-40.2-9-45.8h-68.1
				C176,230.7,178.8,252.8,169.4,271.2z"/>
			<g>
				
					<ellipse transform="matrix(0.177 -0.9842 0.9842 0.177 63.3396 435.4353)" class="st3" cx="292" cy="179.8" rx="26.2" ry="14.2"/>
				
					<ellipse transform="matrix(0.9842 -0.177 0.177 0.9842 -29.7355 26.373)" class="st2" cx="133" cy="179.9" rx="14.2" ry="26.2"/>
				<path class="st2" d="M213.2,104c0,0-80.6-9.2-81.6,14.6c-1,23.3,0.2,26.6,0,32.1c-1.9,54.1,9.1,128.1,81,138.9
					c77.1-11.6,84.2-95.5,80.5-149.9C291.1,112.5,213.2,104,213.2,104z"/>
				<path class="st3" d="M212.5,289.6c115.5-17.4,74-196.9,74-196.9h-17.3c4.7,75,11.3,114.8-15.9,158.2
					C231.7,285.3,212.5,289.6,212.5,289.6z"/>
				<path class="st3" d="M129.9,154c0,0,45.6,12.4,82.7-23.3c0,0,23.8,32.1,81.1,23.4v-44.3H129.9V154z"/>
				<path class="st1" d="M296.8,99.2c-10.5-32.3-84.3-39.1-84.3-39.1l0,0l0,0l0,0l0,0c0,0-73.9,6.8-84.3,39.1
					c-10.5,32.3,1.7,54.8,1.7,54.8c24.8,2.9,59.2-5.9,82.6-29.8c23.4,23.9,56.4,32.8,81.2,29.9C293.7,154.1,307.3,131.5,296.8,99.2z
					"/>
				<path class="st7" d="M129.9,128.7c0,0,28.8-24.8,82.6-24.8s82.5,24.8,82.5,24.8S274.5,81,212.5,81S129.9,128.7,129.9,128.7z"/>
			</g>
		</g>
	</g>
</g>
</svg>
